<svg width="1920" height="1200" viewBox="0 0 1920 1200" fill="none" xmlns="http://www.w3.org/2000/svg">
<mask id="mask0_1_14" style="mask-type:luminance" maskUnits="userSpaceOnUse" x="0" y="0" width="1920" height="1200">
<path d="M1920 0H0V1200H1920V0Z" fill="white"/>
</mask>
<g mask="url(#mask0_1_14)">
<path d="M1920 0H0V1200H1920V0Z" fill="#292526"/>
<path d="M960.627 598.922L1041.75 693.149L1138.5 719.1L1241.23 774.913L1324.71 790.058L1935.53 1093.55L1029.99 1107.6L3.13586 1092.53L197.821 1011.22L365.223 886.508L791.243 719.1L909.101 649.842L960.627 598.922Z" fill="#F8F1D7"/>
<path d="M63.4618 1077.34L307.93 1094.81H676.192L1031.45 1113.97L1304.6 1094.81L1531.15 1089.14" stroke="#F8F1D7" stroke-width="13.2313"/>
<path d="M960.651 599.615L836.661 513.512L777.058 476.797L699.89 450.451L-13.3525 106.807L1918.8 75.8665L1287.3 411.83L1173.95 450.451L1073.04 513.512L960.651 599.615Z" fill="#F8F1D7"/>
<path d="M1850.04 106.905L1605.32 93.4836L1237.11 99.5749L881.138 87.9981L608.783 109.969L378.453 113.779" stroke="#F8F1D7" stroke-width="13.2313"/>
<g filter="url(#filter0_n_1_14)">
<path d="M550.322 378.809L-64.6149 1189.69V-432.071L550.322 378.809Z" fill="#D1D9CA"/>
</g>
<path d="M1328.64 790.698L1986.97 -88.6935V1670.49L1328.64 790.698Z" fill="#E5604F"/>
</g>
<defs>
<filter id="filter0_n_1_14" x="-64.6149" y="-432.071" width="614.937" height="1621.76" filterUnits="userSpaceOnUse" color-interpolation-filters="sRGB">
<feFlood flood-opacity="0" result="BackgroundImageFix"/>
<feBlend mode="normal" in="SourceGraphic" in2="BackgroundImageFix" result="shape"/>
<feTurbulence type="fractalNoise" baseFrequency="0.75985878705978394 0.75985878705978394" stitchTiles="stitch" numOctaves="3" result="noise" seed="6549" />
<feColorMatrix in="noise" type="luminanceToAlpha" result="alphaNoise" />
<feComponentTransfer in="alphaNoise" result="coloredNoise1">
<feFuncA type="discrete" tableValues="1 1 1 1 1 1 1 1 1 1 1 1 1 1 1 1 1 1 1 1 1 1 1 1 1 1 1 1 1 1 1 1 1 1 1 1 1 1 1 1 1 1 1 1 1 1 1 1 1 1 1 0 0 0 0 0 0 0 0 0 0 0 0 0 0 0 0 0 0 0 0 0 0 0 0 0 0 0 0 0 0 0 0 0 0 0 0 0 0 0 0 0 0 0 0 0 0 0 0 0 "/>
</feComponentTransfer>
<feComposite operator="in" in2="shape" in="coloredNoise1" result="noise1Clipped" />
<feFlood flood-color="rgba(0, 0, 0, 0.25)" result="color1Flood" />
<feComposite operator="in" in2="noise1Clipped" in="color1Flood" result="color1" />
<feMerge result="effect1_noise_1_14">
<feMergeNode in="shape" />
<feMergeNode in="color1" />
</feMerge>
</filter>
</defs>
</svg>
