<svg width="1921" height="1186" viewBox="0 0 1921 1186" fill="none" xmlns="http://www.w3.org/2000/svg">
<g clip-path="url(#clip0_430_3165)">
<rect width="1920" height="1184.43" transform="translate(0.894531 0.78479)" fill="#292526"/>
<path d="M961.522 591.936L1042.64 684.94L1139.39 710.555L1242.12 765.643L1325.6 780.592L1936.42 1080.15L1030.88 1094.01L4.03045 1079.14L198.716 998.88L366.118 875.79L792.138 710.555L909.996 642.195L961.522 591.936Z" fill="#F8F1D7"/>
<path d="M64.3564 1064.15L308.825 1081.39H677.087L1032.34 1100.3L1305.49 1081.39L1532.04 1075.79" stroke="#F8F1D7" stroke-width="13.2313"/>
<path d="M961.546 592.62L837.556 507.634L777.953 471.395L700.785 445.391L-12.458 106.206L1919.69 75.6669L1288.19 407.271L1174.84 445.391L1073.93 507.634L961.546 592.62Z" fill="#F8F1D7"/>
<path d="M1850.93 106.303L1606.21 93.0555L1238 99.0678L882.033 87.6412L609.678 109.327L379.348 113.088" stroke="#F8F1D7" stroke-width="13.2313"/>
<g filter="url(#filter0_n_430_3165)">
<path d="M551.217 374.679L-63.7203 1175.04L-63.7203 -425.68L551.217 374.679Z" fill="#D1D9CA"/>
</g>
<path d="M1329.53 781.223L1987.86 -86.7579V1649.6L1329.53 781.223Z" fill="#E5604F"/>
</g>
<defs>
<filter id="filter0_n_430_3165" x="-63.7207" y="-425.68" width="614.938" height="1600.72" filterUnits="userSpaceOnUse" color-interpolation-filters="sRGB">
<feFlood flood-opacity="0" result="BackgroundImageFix"/>
<feBlend mode="normal" in="SourceGraphic" in2="BackgroundImageFix" result="shape"/>
<feTurbulence type="fractalNoise" baseFrequency="0.75985878705978394 0.75985878705978394" stitchTiles="stitch" numOctaves="3" result="noise" seed="6549" />
<feColorMatrix in="noise" type="luminanceToAlpha" result="alphaNoise" />
<feComponentTransfer in="alphaNoise" result="coloredNoise1">
<feFuncA type="discrete" tableValues="1 1 1 1 1 1 1 1 1 1 1 1 1 1 1 1 1 1 1 1 1 1 1 1 1 1 1 1 1 1 1 1 1 1 1 1 1 1 1 1 1 1 1 1 1 1 1 1 1 1 1 0 0 0 0 0 0 0 0 0 0 0 0 0 0 0 0 0 0 0 0 0 0 0 0 0 0 0 0 0 0 0 0 0 0 0 0 0 0 0 0 0 0 0 0 0 0 0 0 0 "/>
</feComponentTransfer>
<feComposite operator="in" in2="shape" in="coloredNoise1" result="noise1Clipped" />
<feFlood flood-color="rgba(0, 0, 0, 0.25)" result="color1Flood" />
<feComposite operator="in" in2="noise1Clipped" in="color1Flood" result="color1" />
<feMerge result="effect1_noise_430_3165">
<feMergeNode in="shape" />
<feMergeNode in="color1" />
</feMerge>
</filter>
<clipPath id="clip0_430_3165">
<rect width="1920" height="1184.43" fill="white" transform="translate(0.894531 0.78479)"/>
</clipPath>
</defs>
</svg>
