<svg width="317" height="145" viewBox="0 0 317 145" fill="none" xmlns="http://www.w3.org/2000/svg">
<path d="M120.279 60.4155L123.584 57.1368L130.56 54.1793" stroke="#262020" stroke-width="4.00322"/>
<path d="M118.445 67.1638L119.945 60.1982" stroke="#262020" stroke-width="4.00322"/>
<path d="M116.351 67.4182C115.854 63.3079 118.955 53.9734 129.853 52.8335" stroke="#262020"/>
<path d="M131.169 101.511C127.71 102.12 117.3 101.007 116.297 91.4375" stroke="#262020"/>
<path d="M164.065 101.443L170.507 86.9473" stroke="#262020" stroke-width="4.00322"/>
<path d="M156.851 95.1921L174.328 53.7668" stroke="#262020" stroke-width="6.67204"/>
<rect x="0.504659" y="143.435" width="143.02" height="9.9847" transform="rotate(-90 0.504659 143.435)" fill="#262020" stroke="#262020" stroke-width="0.831585"/>
<rect x="4.27834" y="0.416036" width="304.443" height="9.9847" fill="#262020" stroke="#262020" stroke-width="0.831585"/>
<rect x="0.504659" y="133.435" width="304.354" height="10.8374" fill="#262020" stroke="#262020" stroke-width="0.831585"/>
<rect x="304.854" y="144.272" width="143.856" height="10.7976" transform="rotate(-90 304.854 144.272)" fill="#262020" stroke="#262020" stroke-width="0.831585"/>
<rect x="5.35232" y="90.3562" width="50.6966" height="5.13812" transform="rotate(-90 5.35232 90.3562)" fill="#262020" stroke="#262020" stroke-width="0.831585"/>
<rect x="214.47" y="94.3811" width="4.33161" height="6.38665" fill="black" stroke="#262020" stroke-width="1.33441"/>
<rect x="248.893" y="97.2278" width="4.36289" height="34.4236" transform="rotate(90 248.893 97.2278)" fill="#262020" stroke="#262020" stroke-width="1.33441"/>
<rect x="248.893" y="101.591" width="12.5831" height="41.0396" transform="rotate(180 248.893 101.591)" fill="#262020" stroke="#262020" stroke-width="1.33441"/>
<rect x="228.147" y="101.591" width="13.6777" height="24.3894" transform="rotate(180 228.147 101.591)" fill="#262020" stroke="#262020" stroke-width="1.33441"/>
<rect x="235.44" y="77.605" width="6.22898" height="2.143" transform="rotate(180 235.44 77.605)" fill="black" stroke="#262020" stroke-width="1.33441"/>
<rect x="238.223" y="73.5557" width="17.1701" height="3.08256" transform="rotate(180 238.223 73.5557)" fill="#262020" stroke="#262020" stroke-width="1.33441"/>
<rect x="238.348" y="63.4785" width="6.25569" height="3.08256" transform="rotate(90 238.348 63.4785)" fill="#262020" stroke="#262020" stroke-width="1.33441"/>
<rect x="238.083" y="63.4068" width="9.12714" height="3.08256" transform="rotate(180 238.083 63.4068)" fill="#262020" stroke="#262020" stroke-width="1.33441"/>
<rect x="228.147" y="63.4068" width="7.08383" height="3.08256" transform="rotate(180 228.147 63.4068)" fill="#262020" stroke="#262020" stroke-width="1.33441"/>
<rect x="232.354" y="60.0916" width="11.2903" height="3.71393" transform="rotate(180 232.354 60.0916)" fill="#262020" stroke="#262020" stroke-width="1.33441"/>
<rect x="202.768" y="101.591" width="45.2128" height="3.71393" transform="rotate(-90 202.768 101.591)" fill="black" stroke="#262020" stroke-width="1.33441"/>
<rect x="192.827" y="101.591" width="45.2128" height="5.31157" transform="rotate(-90 192.827 101.591)" fill="#262020" stroke="#262020" stroke-width="1.33441"/>
<rect x="171.972" y="77.323" width="20.9453" height="5.23859" transform="rotate(-90 171.972 77.323)" fill="black" stroke="#262020" stroke-width="1.33441"/>
<rect x="177.862" y="101.591" width="45.2128" height="5.23859" transform="rotate(-90 177.862 101.591)" fill="black" stroke="#262020" stroke-width="1.33441"/>
<rect x="168.697" y="87.0642" width="25.868" height="7.83112" transform="rotate(-90 168.697 87.0642)" fill="#262020" stroke="#262020" stroke-width="1.33441"/>
<rect x="192.827" y="98.2825" width="45.2128" height="13.6516" transform="rotate(-90 192.827 98.2825)" fill="#262020" stroke="#262020" stroke-width="1.33441"/>
<rect x="171.972" y="101.591" width="37.3745" height="3.71393" transform="rotate(-90 171.972 101.591)" fill="#262020" stroke="#262020" stroke-width="1.33441"/>
<rect x="175.256" y="100.964" width="14.1253" height="3.71393" transform="rotate(-90 175.256 100.964)" fill="black" stroke="#262020" stroke-width="1.33441"/>
<rect x="165.311" y="90.7635" width="16.8638" height="3.33602" transform="rotate(-90 165.311 90.7635)" fill="#262020" stroke="#262020" stroke-width="1.33441"/>
<rect x="122.839" y="76.3216" width="19.9379" height="7.10468" transform="rotate(-90 122.839 76.3216)" fill="#262020" stroke="#262020" stroke-width="1.33441"/>
<rect x="116.468" y="90.8313" width="23.8115" height="6.97016" transform="rotate(-90 116.468 90.8313)" fill="#262020" stroke="#262020" stroke-width="1.33441"/>
<rect x="94.4616" y="94.9751" width="35.3032" height="7.31839" transform="rotate(-90 94.4616 94.9751)" fill="#262020" stroke="#262020" stroke-width="1.33441"/>
<rect x="100.102" y="90.5791" width="26.7533" height="8.25665" transform="rotate(-90 100.102 90.5791)" fill="#262020" stroke="#262020" stroke-width="1.33441"/>
<rect x="96.8437" y="96.5923" width="36.9204" height="6.71374" transform="rotate(-90 96.8437 96.5923)" fill="#262020" stroke="#262020" stroke-width="1.33441"/>
<rect x="73.9087" y="94.9751" width="52.7437" height="7.19851" transform="rotate(-90 73.9087 94.9751)" fill="#262020" stroke="#262020" stroke-width="1.33441"/>
<rect x="77.3801" y="96.1983" width="34.5461" height="10.2009" transform="rotate(-90 77.3801 96.1983)" fill="#262020" stroke="#262020" stroke-width="1.33441"/>
<rect x="77.1977" y="96.5923" width="48.6987" height="4.8268" transform="rotate(-90 77.1977 96.5923)" fill="#262020" stroke="#262020" stroke-width="1.33441"/>
<rect x="124.773" y="100.552" width="22.6758" height="5.17067" transform="rotate(-90 124.773 100.552)" fill="#262020" stroke="#262020" stroke-width="1.33441"/>
<rect x="119.534" y="97.2354" width="22.7644" height="10.4094" transform="rotate(-90 119.534 97.2354)" fill="#262020" stroke="#262020" stroke-width="1.33441"/>
<rect x="119.458" y="79.6099" width="19.9379" height="7.18012" transform="rotate(-90 119.458 79.6099)" fill="#262020" stroke="#262020" stroke-width="1.33441"/>
<rect x="126.435" y="56.3835" width="19.9379" height="3.88659" fill="#262020" stroke="#262020" stroke-width="1.33441"/>
<path d="M136.058 53.6726V56.0994H131.105V53.6726H136.058Z" fill="black" stroke="#262020" stroke-width="2.66882"/>
<rect x="130.037" y="96.3095" width="20.7459" height="5.18073" fill="#262020" stroke="#262020" stroke-width="1.33441"/>
<rect x="81.425" y="97.9267" width="20.4227" height="3.76084" fill="#262020" stroke="#262020" stroke-width="1.33441"/>
<rect x="87.6801" y="95.3791" width="13.8966" height="3.76084" fill="#262020" stroke="#262020" stroke-width="1.33441"/>
<rect x="82.8899" y="95.3791" width="4.69128" height="3.76084" fill="#262020" stroke="#262020" stroke-width="1.33441"/>
<rect x="82.478" y="59.6721" width="5.12913" height="3.76084" fill="#262020" stroke="#262020" stroke-width="1.33441"/>
<rect x="78.3029" y="38.9138" width="4.02407" height="3.76084" fill="black" stroke="#262020" stroke-width="1.33441"/>
<rect x="81.425" y="35.5881" width="12.9219" height="5.30896" fill="#262020" stroke="#262020" stroke-width="1.33441"/>
<rect x="80.4297" y="53.7129" width="13.3825" height="4.18045" transform="rotate(-90 80.4297 53.7129)" fill="#262020" stroke="#262020" stroke-width="1.33441"/>
<rect x="80.2783" y="47.4397" width="13.3825" height="7.55882" fill="#262020" stroke="#262020" stroke-width="1.33441"/>
<rect x="84.0732" y="59.6721" width="13.3825" height="6.81213" fill="#262020" stroke="#262020" stroke-width="1.33441"/>
<rect x="91.0578" y="53.7129" width="12.9219" height="3.13273" transform="rotate(-90 91.0578 53.7129)" fill="#262020" stroke="#262020" stroke-width="1.33441"/>
<rect x="95.2382" y="48.468" width="9.49265" height="3.13752" transform="rotate(-90 95.2382 48.468)" fill="#262020" stroke="#262020" stroke-width="1.33441"/>
<rect x="137.147" y="91.2607" width="10.3834" height="7.02193" fill="#262020" stroke="#262020" stroke-width="1.33441"/>
<rect x="140.4" y="87.9873" width="10.3834" height="6.98805" fill="#262020" stroke="#262020" stroke-width="1.33441"/>
<rect x="142.089" y="69.8398" width="10.9049" height="3.61163" fill="black" stroke="#262020" stroke-width="1.33441"/>
<rect x="137.069" y="73.4514" width="12.2599" height="3.61163" transform="rotate(-90 137.069 73.4514)" fill="#262020" stroke="#262020" stroke-width="1.33441"/>
<rect x="140.045" y="79.0965" width="22.713" height="7.4852" transform="rotate(-90 140.045 79.0965)" fill="#262020" stroke="#262020" stroke-width="1.33441"/>
<rect x="143.298" y="80.8433" width="17.0176" height="7.4852" transform="rotate(-90 143.298 80.8433)" fill="#262020" stroke="#262020" stroke-width="1.33441"/>
<rect x="178.941" y="91.271" width="14.1253" height="3.71393" fill="black" stroke="#262020" stroke-width="1.33441"/>
<rect x="175.256" y="97.8767" width="13.7194" height="3.71393" fill="#262020" stroke="#262020" stroke-width="1.33441"/>
<rect x="181.85" y="98.7342" width="14.1253" height="10.5241" transform="rotate(-90 181.85 98.7342)" fill="#262020" stroke="#262020" stroke-width="1.33441"/>
<rect x="171.972" y="98.2825" width="45.2128" height="11.1288" transform="rotate(-90 171.972 98.2825)" fill="#262020" stroke="#262020" stroke-width="1.33441"/>
<rect x="197.492" y="98.2825" width="11.2903" height="3.71393" transform="rotate(180 197.492 98.2825)" fill="black" stroke="#262020" stroke-width="1.33441"/>
<rect x="161.584" y="101.591" width="7.13074" height="7.02193" transform="rotate(180 161.584 101.591)" fill="#262020" stroke="#262020" stroke-width="1.33441"/>
<rect x="165.222" y="101.591" width="7.45392" height="10.3195" transform="rotate(180 165.222 101.591)" fill="#262020" stroke="#262020" stroke-width="1.33441"/>
<rect x="168.271" y="91.6306" width="7.13074" height="7.02193" transform="rotate(180 168.271 91.6306)" fill="#262020" stroke="#262020" stroke-width="1.33441"/>
<rect x="174.589" y="87.4529" width="7.13074" height="7.02193" transform="rotate(180 174.589 87.4529)" fill="#262020" stroke="#262020" stroke-width="1.33441"/>
<rect x="197.492" y="98.2825" width="11.2903" height="3.71393" transform="rotate(180 197.492 98.2825)" fill="#262020" stroke="#262020" stroke-width="1.33441"/>
<rect x="200.787" y="91.6875" width="14.298" height="3.71393" transform="rotate(180 200.787 91.6875)" fill="#262020" stroke="#262020" stroke-width="1.33441"/>
<rect x="150.783" y="80.8433" width="22.81" height="7.01737" transform="rotate(180 150.783 80.8433)" fill="#262020" stroke="#262020" stroke-width="1.33441"/>
<rect x="206.479" y="101.591" width="9.15321" height="3.71393" transform="rotate(180 206.479 101.591)" fill="#262020" stroke="#262020" stroke-width="1.33441"/>
<rect x="238.348" y="56.7596" width="17.2848" height="3.71393" transform="rotate(180 238.348 56.7596)" fill="#262020" stroke="#262020" stroke-width="1.33441"/>
<rect x="245.729" y="60.0916" width="13.6777" height="3.71393" transform="rotate(180 245.729 60.0916)" fill="#262020" stroke="#262020" stroke-width="1.33441"/>
<rect x="234.976" y="76.9073" width="17.1701" height="3.06301" transform="rotate(180 234.976 76.9073)" fill="#262020" stroke="#262020" stroke-width="1.33441"/>
<rect x="227.621" y="80.2642" width="13.1616" height="3.06301" transform="rotate(180 227.621 80.2642)" fill="#262020" stroke="#262020" stroke-width="1.33441"/>
<rect x="221.392" y="71.7098" width="8.09513" height="1.37964" transform="rotate(134.327 221.392 71.7098)" fill="black" stroke="#262020" stroke-width="1.33441"/>
<rect x="239.099" y="79.9038" width="17.707" height="3.83186" transform="rotate(90 239.099 79.9038)" fill="#262020" stroke="#262020" stroke-width="1.33441"/>
<rect x="241.491" y="80.8003" width="6.22898" height="2.143" transform="rotate(180 241.491 80.8003)" fill="#262020" stroke="#262020" stroke-width="1.33441"/>
<rect x="266.809" y="102.102" width="23.9047" height="17.3291" fill="#262020" stroke="#262020" stroke-width="1.33441"/>
<rect x="266.809" y="63.6792" width="23.9047" height="17.3291" fill="#262020" stroke="#262020" stroke-width="1.33441"/>
<rect x="266.809" y="24.8425" width="23.9047" height="17.3291" fill="#262020" stroke="#262020" stroke-width="1.33441"/>
<path d="M238.708 54.356C238.708 54.356 246.667 54.7611 247.117 55.6155C247.568 56.4698 247.568 60.0996 247.568 60.0996" stroke="#262020" stroke-width="4.00322"/>
<path d="M137.893 91.9832L141.124 88.7344" stroke="#262020" stroke-width="4.00322"/>
<path d="M117.752 90.7357L121.524 97.9423" stroke="#262020" stroke-width="4.00322"/>
<path d="M126.309 99.3818L120.336 96.4231" stroke="#262020" stroke-width="4.00322"/>
<path d="M135.793 55.054C135.793 55.054 142.404 54.5784 145.448 56.5441C150.147 59.579 152.039 66.065 152.039 69.3447C152.039 72.6243 152.039 81.5105 152.039 81.5105" stroke="#262020" stroke-width="5.33763"/>
<path d="M81.2295 93.9829C81.2295 93.9829 81.3404 98.6365 81.4115 101.618" stroke="#262020" stroke-width="5.33763"/>
<path d="M81.3206 93.4675C81.3206 93.4675 77.4943 96.1186 75.0426 97.8172" stroke="#262020" stroke-width="5.33763"/>
<path d="M82.29 93.9829C82.29 93.9829 79.786 97.9069 78.1815 100.421" stroke="#262020" stroke-width="5.33763"/>
<path d="M73.6875 95.418C74.9455 97.9473 76.3256 100.644 80.8871 101.867" stroke="#262020"/>
<path d="M102.242 101.934C104.861 100.23 108.641 95.5133 108.525 90.9029" stroke="#262020"/>
<path d="M100.206 101.005L106.714 89.8959" stroke="#262020" stroke-width="5.33763"/>
<path d="M102.244 99.0198L106.198 91.958" stroke="#262020" stroke-width="5.33763"/>
<path d="M102.484 61.0247L107.264 65.1823" stroke="#262020" stroke-width="5.33763"/>
<path d="M82.0664 37.2458L75.3167 42.9573" stroke="#262020" stroke-width="5.33763"/>
<path d="M80.3721 37.6316L76.9453 41.5154" stroke="#262020" stroke-width="5.33763"/>
<path d="M93.3357 37.0066L97.2715 40.3029" stroke="#262020" stroke-width="5.33763"/>
<path d="M97.4214 48.5437C95.6151 50.824 94.6024 52.1024 92.7961 54.3827" stroke="#262020" stroke-width="4.00322"/>
<path d="M71.8537 97.5489C53.9874 106.17 -4.54749 91.4576 30.1358 49.4014" stroke="#292526" stroke-width="8.14765"/>
<path d="M28.7993 51.0407C34.1184 42.5239 67.0932 12.8893 135.051 22.9927C203.008 33.0961 170.701 41.0539 146.053 43.7699C154.844 43.7699 169.295 31.278 146.667 24.8653" stroke="#292526" stroke-width="8.14765"/>
<path d="M70.9397 96.0811C59.5727 100.419 -0.723219 77.2518 36.2013 43.1953" stroke="#292526" stroke-width="8.14765"/>
<rect x="156.845" y="28.9558" width="14.6403" height="9.84143" fill="#292526"/>
<rect x="23.811" y="76.4844" width="27.8828" height="5.79148" transform="rotate(40.7082 23.811 76.4844)" fill="#292526"/>
<path d="M73.7314 41.6997C74.1542 39.8853 76.7998 36.0919 80.8354 35.4124" stroke="#262020"/>
<path d="M98.5442 49.0738C98.6159 50.9436 97.642 53.2685 94.0493 55.2282" stroke="#262020"/>
<path d="M103.73 59.5195C105.404 59.3386 108.527 61.7246 108.527 63.1875" stroke="#262020"/>
<path d="M94.9315 35.4157C95.8653 35.5319 98.0487 37.7497 98.6339 38.5896" stroke="#262020"/>
<rect x="0.0888672" y="0.000244141" width="316.013" height="144.688" fill="#B4BAAD" fill-opacity="0.35"/>
</svg>
